{
 "cells": [
  {
   "cell_type": "code",
   "execution_count": 1,
   "id": "00ba7616",
   "metadata": {},
   "outputs": [
    {
     "name": "stderr",
     "output_type": "stream",
     "text": [
      "pybullet build time: Sep  3 2024 12:54:04\n"
     ]
    },
    {
     "name": "stdout",
     "output_type": "stream",
     "text": [
      "Version = 4.1 ATI-6.1.13\n",
      "Vendor = ATI Technologies Inc.\n",
      "Renderer = AMD Radeon Pro 5300M OpenGL Engine\n",
      "b3Printf: Selected demo: Physics Server\n",
      "startThreads creating 1 threads.\n",
      "starting thread 0\n",
      "started thread 0 \n",
      "MotionThreadFunc thread started\n"
     ]
    },
    {
     "name": "stderr",
     "output_type": "stream",
     "text": [
      "2025-05-09 08:52:19.661 python[95118:7553806] +[IMKClient subclass]: chose IMKClient_Modern\n",
      "2025-05-09 08:52:19.661 python[95118:7553806] +[IMKInputSession subclass]: chose IMKInputSession_Modern\n"
     ]
    },
    {
     "name": "stdout",
     "output_type": "stream",
     "text": [
      "🚀 Launching Streamlit UI for preference collection...\n",
      "\n",
      "🔁 Iteration 1/3\n",
      "\n",
      "  You can now view your Streamlit app in your browser.\n",
      "\n",
      "  Local URL: http://localhost:8505\n",
      "  Network URL: http://192.168.1.113:8505\n",
      "\n",
      "  For better performance, install the Watchdog module:\n",
      "\n",
      "  $ xcode-select --install\n",
      "  $ pip install watchdog\n",
      "            \n"
     ]
    },
    {
     "name": "stderr",
     "output_type": "stream",
     "text": [
      "2025-05-09 08:52:21.626 python[95118:7553806] _TIPropertyValueIsValid called with 4 on nil context!\n",
      "2025-05-09 08:52:21.626 python[95118:7553806] imkxpc_getApplicationProperty:reply: called with incorrect property value 4, bailing.\n",
      "2025-05-09 08:52:21.626 python[95118:7553806] Text input context does not respond to _valueForTIProperty:\n",
      "2025-05-09 08:52:21.626 python[95118:7553806] _TIPropertyValueIsValid called with 4 on nil context!\n",
      "2025-05-09 08:52:21.626 python[95118:7553806] imkxpc_getApplicationProperty:reply: called with incorrect property value 4, bailing.\n",
      "2025-05-09 08:52:21.626 python[95118:7553806] Text input context does not respond to _valueForTIProperty:\n",
      "ffmpeg version 7.1.1 Copyright (c) 2000-2025 the FFmpeg developers\n",
      "  built with Apple clang version 16.0.0 (clang-1600.0.26.6)\n",
      "  configuration: --prefix=/usr/local/Cellar/ffmpeg/7.1.1_2 --enable-shared --enable-pthreads --enable-version3 --cc=clang --host-cflags= --host-ldflags='-Wl,-ld_classic' --enable-ffplay --enable-gnutls --enable-gpl --enable-libaom --enable-libaribb24 --enable-libbluray --enable-libdav1d --enable-libharfbuzz --enable-libjxl --enable-libmp3lame --enable-libopus --enable-librav1e --enable-librist --enable-librubberband --enable-libsnappy --enable-libsrt --enable-libssh --enable-libsvtav1 --enable-libtesseract --enable-libtheora --enable-libvidstab --enable-libvmaf --enable-libvorbis --enable-libvpx --enable-libwebp --enable-libx264 --enable-libx265 --enable-libxml2 --enable-libxvid --enable-lzma --enable-libfontconfig --enable-libfreetype --enable-frei0r --enable-libass --enable-libopencore-amrnb --enable-libopencore-amrwb --enable-libopenjpeg --enable-libspeex --enable-libsoxr --enable-libzmq --enable-libzimg --disable-libjack --disable-indev=jack --enable-videotoolbox --enable-audiotoolbox\n",
      "  libavutil      59. 39.100 / 59. 39.100\n",
      "  libavcodec     61. 19.101 / 61. 19.101\n",
      "  libavformat    61.  7.100 / 61.  7.100\n",
      "  libavdevice    61.  3.100 / 61.  3.100\n",
      "  libavfilter    10.  4.100 / 10.  4.100\n",
      "  libswscale      8.  3.100 /  8.  3.100\n",
      "  libswresample   5.  3.100 /  5.  3.100\n",
      "  libpostproc    58.  3.100 / 58.  3.100\n",
      "Input #0, mov,mp4,m4a,3gp,3g2,mj2, from 'data/clips/left_clip_000.mp4':\n",
      "  Metadata:\n",
      "    major_brand     : isom\n",
      "    minor_version   : 512\n",
      "    compatible_brands: isomiso2mp41\n",
      "    encoder         : Lavf61.1.100\n",
      "  Duration: 00:00:03.33, start: 0.000000, bitrate: 612 kb/s\n",
      "  Stream #0:0[0x1](und): Video: mpeg4 (Simple Profile) (mp4v / 0x7634706D), yuv420p, 320x240 [SAR 1:1 DAR 4:3], 609 kb/s, 30 fps, 30 tbr, 15360 tbn (default)\n",
      "      Metadata:\n",
      "        handler_name    : VideoHandler\n",
      "        vendor_id       : [0][0][0][0]\n",
      "Stream mapping:\n",
      "  Stream #0:0 -> #0:0 (mpeg4 (native) -> h264 (libx264))\n",
      "Press [q] to stop, [?] for help\n",
      "[libx264 @ 0x7fd7749069c0] using SAR=1/1\n",
      "[libx264 @ 0x7fd7749069c0] using cpu capabilities: MMX2 SSE2Fast SSSE3 SSE4.2 AVX FMA3 BMI2 AVX2\n",
      "[libx264 @ 0x7fd7749069c0] profile High, level 1.3, 4:2:0, 8-bit\n",
      "[libx264 @ 0x7fd7749069c0] 264 - core 164 r3108 31e19f9 - H.264/MPEG-4 AVC codec - Copyleft 2003-2023 - http://www.videolan.org/x264.html - options: cabac=1 ref=3 deblock=1:0:0 analyse=0x3:0x113 me=hex subme=7 psy=1 psy_rd=1.00:0.00 mixed_ref=1 me_range=16 chroma_me=1 trellis=1 8x8dct=1 cqm=0 deadzone=21,11 fast_pskip=1 chroma_qp_offset=-2 threads=7 lookahead_threads=1 sliced_threads=0 nr=0 decimate=1 interlaced=0 bluray_compat=0 constrained_intra=0 bframes=3 b_pyramid=2 b_adapt=1 b_bias=0 direct=1 weightb=1 open_gop=0 weightp=2 keyint=250 keyint_min=25 scenecut=40 intra_refresh=0 rc_lookahead=40 rc=crf mbtree=1 crf=23.0 qcomp=0.60 qpmin=0 qpmax=69 qpstep=4 ip_ratio=1.40 aq=1:1.00\n",
      "Output #0, mp4, to 'data/clips/left_clip_000_h264.mp4':\n",
      "  Metadata:\n",
      "    major_brand     : isom\n",
      "    minor_version   : 512\n",
      "    compatible_brands: isomiso2mp41\n",
      "    encoder         : Lavf61.7.100\n",
      "  Stream #0:0(und): Video: h264 (avc1 / 0x31637661), yuv420p(tv, progressive), 320x240 [SAR 1:1 DAR 4:3], q=2-31, 30 fps, 15360 tbn (default)\n",
      "      Metadata:\n",
      "        handler_name    : VideoHandler\n",
      "        vendor_id       : [0][0][0][0]\n",
      "        encoder         : Lavc61.19.101 libx264\n",
      "      Side data:\n",
      "        cpb: bitrate max/min/avg: 0/0/0 buffer size: 0 vbv_delay: N/A\n",
      "[out#0/mp4 @ 0x7fd774907500] video:50KiB audio:0KiB subtitle:0KiB other streams:0KiB global headers:0KiB muxing overhead: 3.893857%\n",
      "frame=  100 fps=0.0 q=-1.0 Lsize=      52KiB time=00:00:03.26 bitrate= 130.9kbits/s speed=46.1x    \n",
      "[libx264 @ 0x7fd7749069c0] frame I:1     Avg QP:19.68  size:  6824\n",
      "[libx264 @ 0x7fd7749069c0] frame P:42    Avg QP:25.39  size:   668\n",
      "[libx264 @ 0x7fd7749069c0] frame B:57    Avg QP:31.70  size:   279\n",
      "[libx264 @ 0x7fd7749069c0] consecutive B-frames: 18.0% 14.0% 12.0% 56.0%\n",
      "[libx264 @ 0x7fd7749069c0] mb I  I16..4: 17.3% 70.0% 12.7%\n",
      "[libx264 @ 0x7fd7749069c0] mb P  I16..4:  0.2%  1.0%  0.6%  P16..4:  7.5%  4.5%  3.5%  0.0%  0.0%    skip:82.6%\n",
      "[libx264 @ 0x7fd7749069c0] mb B  I16..4:  0.0%  0.5%  0.0%  B16..8:  8.6%  3.4%  1.4%  direct: 0.7%  skip:85.2%  L0:53.0% L1:40.5% BI: 6.4%\n",
      "[libx264 @ 0x7fd7749069c0] 8x8 transform intra:66.8% inter:32.1%\n",
      "[libx264 @ 0x7fd7749069c0] coded y,uvDC,uvAC intra: 46.1% 57.8% 43.6% inter: 3.2% 4.3% 2.0%\n",
      "[libx264 @ 0x7fd7749069c0] i16 v,h,dc,p: 52% 12% 30%  6%\n",
      "[libx264 @ 0x7fd7749069c0] i8 v,h,dc,ddl,ddr,vr,hd,vl,hu: 14% 27% 44%  3%  3%  1%  4%  1%  4%\n",
      "[libx264 @ 0x7fd7749069c0] i4 v,h,dc,ddl,ddr,vr,hd,vl,hu: 16% 26% 22%  4%  9%  6%  8%  3%  7%\n",
      "[libx264 @ 0x7fd7749069c0] i8c dc,h,v,p: 54% 27% 15%  4%\n",
      "[libx264 @ 0x7fd7749069c0] Weighted P-Frames: Y:0.0% UV:0.0%\n",
      "[libx264 @ 0x7fd7749069c0] ref P L0: 66.4%  9.0% 14.6% 10.0%\n",
      "[libx264 @ 0x7fd7749069c0] ref B L0: 82.1% 12.9%  4.9%\n",
      "[libx264 @ 0x7fd7749069c0] ref B L1: 95.6%  4.4%\n",
      "[libx264 @ 0x7fd7749069c0] kb/s:121.80\n"
     ]
    },
    {
     "name": "stdout",
     "output_type": "stream",
     "text": [
      "🎥 Saved: data/clips/left_clip_000.mp4\n"
     ]
    },
    {
     "name": "stderr",
     "output_type": "stream",
     "text": [
      "ffmpeg version 7.1.1 Copyright (c) 2000-2025 the FFmpeg developers\n",
      "  built with Apple clang version 16.0.0 (clang-1600.0.26.6)\n",
      "  configuration: --prefix=/usr/local/Cellar/ffmpeg/7.1.1_2 --enable-shared --enable-pthreads --enable-version3 --cc=clang --host-cflags= --host-ldflags='-Wl,-ld_classic' --enable-ffplay --enable-gnutls --enable-gpl --enable-libaom --enable-libaribb24 --enable-libbluray --enable-libdav1d --enable-libharfbuzz --enable-libjxl --enable-libmp3lame --enable-libopus --enable-librav1e --enable-librist --enable-librubberband --enable-libsnappy --enable-libsrt --enable-libssh --enable-libsvtav1 --enable-libtesseract --enable-libtheora --enable-libvidstab --enable-libvmaf --enable-libvorbis --enable-libvpx --enable-libwebp --enable-libx264 --enable-libx265 --enable-libxml2 --enable-libxvid --enable-lzma --enable-libfontconfig --enable-libfreetype --enable-frei0r --enable-libass --enable-libopencore-amrnb --enable-libopencore-amrwb --enable-libopenjpeg --enable-libspeex --enable-libsoxr --enable-libzmq --enable-libzimg --disable-libjack --disable-indev=jack --enable-videotoolbox --enable-audiotoolbox\n",
      "  libavutil      59. 39.100 / 59. 39.100\n",
      "  libavcodec     61. 19.101 / 61. 19.101\n",
      "  libavformat    61.  7.100 / 61.  7.100\n",
      "  libavdevice    61.  3.100 / 61.  3.100\n",
      "  libavfilter    10.  4.100 / 10.  4.100\n",
      "  libswscale      8.  3.100 /  8.  3.100\n",
      "  libswresample   5.  3.100 /  5.  3.100\n",
      "  libpostproc    58.  3.100 / 58.  3.100\n",
      "Input #0, mov,mp4,m4a,3gp,3g2,mj2, from 'data/clips/right_clip_000.mp4':\n",
      "  Metadata:\n",
      "    major_brand     : isom\n",
      "    minor_version   : 512\n",
      "    compatible_brands: isomiso2mp41\n",
      "    encoder         : Lavf61.1.100\n",
      "  Duration: 00:00:03.33, start: 0.000000, bitrate: 697 kb/s\n",
      "  Stream #0:0[0x1](und): Video: mpeg4 (Simple Profile) (mp4v / 0x7634706D), yuv420p, 320x240 [SAR 1:1 DAR 4:3], 694 kb/s, 30 fps, 30 tbr, 15360 tbn (default)\n",
      "      Metadata:\n",
      "        handler_name    : VideoHandler\n",
      "        vendor_id       : [0][0][0][0]\n",
      "Stream mapping:\n",
      "  Stream #0:0 -> #0:0 (mpeg4 (native) -> h264 (libx264))\n",
      "Press [q] to stop, [?] for help\n",
      "[libx264 @ 0x7feebaf09400] using SAR=1/1\n",
      "[libx264 @ 0x7feebaf09400] using cpu capabilities: MMX2 SSE2Fast SSSE3 SSE4.2 AVX FMA3 BMI2 AVX2\n",
      "[libx264 @ 0x7feebaf09400] profile High, level 1.3, 4:2:0, 8-bit\n",
      "[libx264 @ 0x7feebaf09400] 264 - core 164 r3108 31e19f9 - H.264/MPEG-4 AVC codec - Copyleft 2003-2023 - http://www.videolan.org/x264.html - options: cabac=1 ref=3 deblock=1:0:0 analyse=0x3:0x113 me=hex subme=7 psy=1 psy_rd=1.00:0.00 mixed_ref=1 me_range=16 chroma_me=1 trellis=1 8x8dct=1 cqm=0 deadzone=21,11 fast_pskip=1 chroma_qp_offset=-2 threads=7 lookahead_threads=1 sliced_threads=0 nr=0 decimate=1 interlaced=0 bluray_compat=0 constrained_intra=0 bframes=3 b_pyramid=2 b_adapt=1 b_bias=0 direct=1 weightb=1 open_gop=0 weightp=2 keyint=250 keyint_min=25 scenecut=40 intra_refresh=0 rc_lookahead=40 rc=crf mbtree=1 crf=23.0 qcomp=0.60 qpmin=0 qpmax=69 qpstep=4 ip_ratio=1.40 aq=1:1.00\n",
      "Output #0, mp4, to 'data/clips/right_clip_000_h264.mp4':\n",
      "  Metadata:\n",
      "    major_brand     : isom\n",
      "    minor_version   : 512\n",
      "    compatible_brands: isomiso2mp41\n",
      "    encoder         : Lavf61.7.100\n",
      "  Stream #0:0(und): Video: h264 (avc1 / 0x31637661), yuv420p(tv, progressive), 320x240 [SAR 1:1 DAR 4:3], q=2-31, 30 fps, 15360 tbn (default)\n",
      "      Metadata:\n",
      "        handler_name    : VideoHandler\n",
      "        vendor_id       : [0][0][0][0]\n",
      "        encoder         : Lavc61.19.101 libx264\n",
      "      Side data:\n",
      "        cpb: bitrate max/min/avg: 0/0/0 buffer size: 0 vbv_delay: N/A\n",
      "[out#0/mp4 @ 0x7feebaf0a040] video:61KiB audio:0KiB subtitle:0KiB other streams:0KiB global headers:0KiB muxing overhead: 3.160013%\n",
      "frame=  100 fps=0.0 q=-1.0 Lsize=      63KiB time=00:00:03.26 bitrate= 156.9kbits/s speed=28.1x    \n",
      "[libx264 @ 0x7feebaf09400] frame I:1     Avg QP:19.04  size:  7053\n",
      "[libx264 @ 0x7feebaf09400] frame P:37    Avg QP:25.19  size:   851\n",
      "[libx264 @ 0x7feebaf09400] frame B:62    Avg QP:31.29  size:   370\n",
      "[libx264 @ 0x7feebaf09400] consecutive B-frames: 12.0%  6.0% 30.0% 52.0%\n",
      "[libx264 @ 0x7feebaf09400] mb I  I16..4:  9.7% 77.0% 13.3%\n",
      "[libx264 @ 0x7feebaf09400] mb P  I16..4:  0.4%  2.0%  1.7%  P16..4:  8.8%  4.9%  3.5%  0.0%  0.0%    skip:78.8%\n",
      "[libx264 @ 0x7feebaf09400] mb B  I16..4:  0.1%  0.7%  0.2%  B16..8: 11.4%  4.1%  1.5%  direct: 0.7%  skip:81.3%  L0:56.0% L1:38.8% BI: 5.1%\n",
      "[libx264 @ 0x7feebaf09400] 8x8 transform intra:62.9% inter:35.7%\n",
      "[libx264 @ 0x7feebaf09400] coded y,uvDC,uvAC intra: 46.9% 62.7% 47.2% inter: 3.6% 4.9% 2.4%\n",
      "[libx264 @ 0x7feebaf09400] i16 v,h,dc,p: 28% 23% 33% 16%\n",
      "[libx264 @ 0x7feebaf09400] i8 v,h,dc,ddl,ddr,vr,hd,vl,hu: 15% 21% 47%  2%  4%  2%  4%  2%  4%\n",
      "[libx264 @ 0x7feebaf09400] i4 v,h,dc,ddl,ddr,vr,hd,vl,hu: 18% 21% 25%  7%  6%  5%  8%  4%  6%\n",
      "[libx264 @ 0x7feebaf09400] i8c dc,h,v,p: 50% 26% 17%  6%\n",
      "[libx264 @ 0x7feebaf09400] Weighted P-Frames: Y:0.0% UV:0.0%\n",
      "[libx264 @ 0x7feebaf09400] ref P L0: 66.8%  8.7% 14.2% 10.3%\n",
      "[libx264 @ 0x7feebaf09400] ref B L0: 79.7% 16.2%  4.1%\n",
      "[libx264 @ 0x7feebaf09400] ref B L1: 96.3%  3.7%\n",
      "[libx264 @ 0x7feebaf09400] kb/s:147.43\n"
     ]
    },
    {
     "name": "stdout",
     "output_type": "stream",
     "text": [
      "🎥 Saved: data/clips/right_clip_000.mp4\n",
      "📦 Converting preferences to dataset...\n",
      "Saved 4 pairs to data/reward_training_data.pt\n",
      "🎯 Training reward model...\n",
      "No preferences to train on!\n",
      "🤖 Training PPO using updated reward function...\n",
      "\n",
      "🔁 Iteration 2/3\n"
     ]
    },
    {
     "name": "stderr",
     "output_type": "stream",
     "text": [
      "ffmpeg version 7.1.1 Copyright (c) 2000-2025 the FFmpeg developers\n",
      "  built with Apple clang version 16.0.0 (clang-1600.0.26.6)\n",
      "  configuration: --prefix=/usr/local/Cellar/ffmpeg/7.1.1_2 --enable-shared --enable-pthreads --enable-version3 --cc=clang --host-cflags= --host-ldflags='-Wl,-ld_classic' --enable-ffplay --enable-gnutls --enable-gpl --enable-libaom --enable-libaribb24 --enable-libbluray --enable-libdav1d --enable-libharfbuzz --enable-libjxl --enable-libmp3lame --enable-libopus --enable-librav1e --enable-librist --enable-librubberband --enable-libsnappy --enable-libsrt --enable-libssh --enable-libsvtav1 --enable-libtesseract --enable-libtheora --enable-libvidstab --enable-libvmaf --enable-libvorbis --enable-libvpx --enable-libwebp --enable-libx264 --enable-libx265 --enable-libxml2 --enable-libxvid --enable-lzma --enable-libfontconfig --enable-libfreetype --enable-frei0r --enable-libass --enable-libopencore-amrnb --enable-libopencore-amrwb --enable-libopenjpeg --enable-libspeex --enable-libsoxr --enable-libzmq --enable-libzimg --disable-libjack --disable-indev=jack --enable-videotoolbox --enable-audiotoolbox\n",
      "  libavutil      59. 39.100 / 59. 39.100\n",
      "  libavcodec     61. 19.101 / 61. 19.101\n",
      "  libavformat    61.  7.100 / 61.  7.100\n",
      "  libavdevice    61.  3.100 / 61.  3.100\n",
      "  libavfilter    10.  4.100 / 10.  4.100\n",
      "  libswscale      8.  3.100 /  8.  3.100\n",
      "  libswresample   5.  3.100 /  5.  3.100\n",
      "  libpostproc    58.  3.100 / 58.  3.100\n",
      "Input #0, mov,mp4,m4a,3gp,3g2,mj2, from 'data/clips/left_clip_001.mp4':\n",
      "  Metadata:\n",
      "    major_brand     : isom\n",
      "    minor_version   : 512\n",
      "    compatible_brands: isomiso2mp41\n",
      "    encoder         : Lavf61.1.100\n",
      "  Duration: 00:00:03.33, start: 0.000000, bitrate: 761 kb/s\n",
      "  Stream #0:0[0x1](und): Video: mpeg4 (Simple Profile) (mp4v / 0x7634706D), yuv420p, 320x240 [SAR 1:1 DAR 4:3], 757 kb/s, 30 fps, 30 tbr, 15360 tbn (default)\n",
      "      Metadata:\n",
      "        handler_name    : VideoHandler\n",
      "        vendor_id       : [0][0][0][0]\n",
      "Stream mapping:\n",
      "  Stream #0:0 -> #0:0 (mpeg4 (native) -> h264 (libx264))\n",
      "Press [q] to stop, [?] for help\n",
      "[libx264 @ 0x7fbe61c09c00] using SAR=1/1\n",
      "[libx264 @ 0x7fbe61c09c00] using cpu capabilities: MMX2 SSE2Fast SSSE3 SSE4.2 AVX FMA3 BMI2 AVX2\n",
      "[libx264 @ 0x7fbe61c09c00] profile High, level 1.3, 4:2:0, 8-bit\n",
      "[libx264 @ 0x7fbe61c09c00] 264 - core 164 r3108 31e19f9 - H.264/MPEG-4 AVC codec - Copyleft 2003-2023 - http://www.videolan.org/x264.html - options: cabac=1 ref=3 deblock=1:0:0 analyse=0x3:0x113 me=hex subme=7 psy=1 psy_rd=1.00:0.00 mixed_ref=1 me_range=16 chroma_me=1 trellis=1 8x8dct=1 cqm=0 deadzone=21,11 fast_pskip=1 chroma_qp_offset=-2 threads=7 lookahead_threads=1 sliced_threads=0 nr=0 decimate=1 interlaced=0 bluray_compat=0 constrained_intra=0 bframes=3 b_pyramid=2 b_adapt=1 b_bias=0 direct=1 weightb=1 open_gop=0 weightp=2 keyint=250 keyint_min=25 scenecut=40 intra_refresh=0 rc_lookahead=40 rc=crf mbtree=1 crf=23.0 qcomp=0.60 qpmin=0 qpmax=69 qpstep=4 ip_ratio=1.40 aq=1:1.00\n",
      "Output #0, mp4, to 'data/clips/left_clip_001_h264.mp4':\n",
      "  Metadata:\n",
      "    major_brand     : isom\n",
      "    minor_version   : 512\n",
      "    compatible_brands: isomiso2mp41\n",
      "    encoder         : Lavf61.7.100\n",
      "  Stream #0:0(und): Video: h264 (avc1 / 0x31637661), yuv420p(tv, progressive), 320x240 [SAR 1:1 DAR 4:3], q=2-31, 30 fps, 15360 tbn (default)\n",
      "      Metadata:\n",
      "        handler_name    : VideoHandler\n",
      "        vendor_id       : [0][0][0][0]\n",
      "        encoder         : Lavc61.19.101 libx264\n",
      "      Side data:\n",
      "        cpb: bitrate max/min/avg: 0/0/0 buffer size: 0 vbv_delay: N/A\n",
      "[out#0/mp4 @ 0x7fbe61c08cc0] video:68KiB audio:0KiB subtitle:0KiB other streams:0KiB global headers:0KiB muxing overhead: 2.928058%\n",
      "frame=  100 fps=0.0 q=-1.0 Lsize=      70KiB time=00:00:03.26 bitrate= 175.2kbits/s speed=37.2x    \n",
      "[libx264 @ 0x7fbe61c09c00] frame I:1     Avg QP:19.46  size:  6942\n",
      "[libx264 @ 0x7fbe61c09c00] frame P:36    Avg QP:25.08  size:   944\n",
      "[libx264 @ 0x7fbe61c09c00] frame B:63    Avg QP:31.05  size:   443\n",
      "[libx264 @ 0x7fbe61c09c00] consecutive B-frames: 11.0% 12.0%  9.0% 68.0%\n",
      "[libx264 @ 0x7fbe61c09c00] mb I  I16..4:  9.3% 77.3% 13.3%\n",
      "[libx264 @ 0x7fbe61c09c00] mb P  I16..4:  0.4%  2.3%  2.5%  P16..4:  8.7%  4.6%  3.5%  0.0%  0.0%    skip:78.1%\n",
      "[libx264 @ 0x7fbe61c09c00] mb B  I16..4:  0.1%  0.9%  0.4%  B16..8: 10.5%  4.0%  1.7%  direct: 0.7%  skip:81.6%  L0:51.4% L1:43.5% BI: 5.1%\n",
      "[libx264 @ 0x7fbe61c09c00] 8x8 transform intra:57.9% inter:35.9%\n",
      "[libx264 @ 0x7fbe61c09c00] coded y,uvDC,uvAC intra: 53.0% 65.2% 50.8% inter: 3.7% 5.1% 2.7%\n",
      "[libx264 @ 0x7fbe61c09c00] i16 v,h,dc,p: 31% 17% 30% 21%\n",
      "[libx264 @ 0x7fbe61c09c00] i8 v,h,dc,ddl,ddr,vr,hd,vl,hu: 17% 21% 42%  3%  4%  2%  4%  1%  5%\n",
      "[libx264 @ 0x7fbe61c09c00] i4 v,h,dc,ddl,ddr,vr,hd,vl,hu: 16% 21% 26%  6%  7%  5%  8%  4%  7%\n",
      "[libx264 @ 0x7fbe61c09c00] i8c dc,h,v,p: 51% 25% 18%  6%\n",
      "[libx264 @ 0x7fbe61c09c00] Weighted P-Frames: Y:0.0% UV:0.0%\n",
      "[libx264 @ 0x7fbe61c09c00] ref P L0: 66.8%  7.9% 15.5%  9.8%\n",
      "[libx264 @ 0x7fbe61c09c00] ref B L0: 83.2% 13.2%  3.6%\n",
      "[libx264 @ 0x7fbe61c09c00] ref B L1: 95.8%  4.2%\n",
      "[libx264 @ 0x7fbe61c09c00] kb/s:165.15\n"
     ]
    },
    {
     "name": "stdout",
     "output_type": "stream",
     "text": [
      "🎥 Saved: data/clips/left_clip_001.mp4\n"
     ]
    },
    {
     "name": "stderr",
     "output_type": "stream",
     "text": [
      "ffmpeg version 7.1.1 Copyright (c) 2000-2025 the FFmpeg developers\n",
      "  built with Apple clang version 16.0.0 (clang-1600.0.26.6)\n",
      "  configuration: --prefix=/usr/local/Cellar/ffmpeg/7.1.1_2 --enable-shared --enable-pthreads --enable-version3 --cc=clang --host-cflags= --host-ldflags='-Wl,-ld_classic' --enable-ffplay --enable-gnutls --enable-gpl --enable-libaom --enable-libaribb24 --enable-libbluray --enable-libdav1d --enable-libharfbuzz --enable-libjxl --enable-libmp3lame --enable-libopus --enable-librav1e --enable-librist --enable-librubberband --enable-libsnappy --enable-libsrt --enable-libssh --enable-libsvtav1 --enable-libtesseract --enable-libtheora --enable-libvidstab --enable-libvmaf --enable-libvorbis --enable-libvpx --enable-libwebp --enable-libx264 --enable-libx265 --enable-libxml2 --enable-libxvid --enable-lzma --enable-libfontconfig --enable-libfreetype --enable-frei0r --enable-libass --enable-libopencore-amrnb --enable-libopencore-amrwb --enable-libopenjpeg --enable-libspeex --enable-libsoxr --enable-libzmq --enable-libzimg --disable-libjack --disable-indev=jack --enable-videotoolbox --enable-audiotoolbox\n",
      "  libavutil      59. 39.100 / 59. 39.100\n",
      "  libavcodec     61. 19.101 / 61. 19.101\n",
      "  libavformat    61.  7.100 / 61.  7.100\n",
      "  libavdevice    61.  3.100 / 61.  3.100\n",
      "  libavfilter    10.  4.100 / 10.  4.100\n",
      "  libswscale      8.  3.100 /  8.  3.100\n",
      "  libswresample   5.  3.100 /  5.  3.100\n",
      "  libpostproc    58.  3.100 / 58.  3.100\n",
      "Input #0, mov,mp4,m4a,3gp,3g2,mj2, from 'data/clips/right_clip_001.mp4':\n",
      "  Metadata:\n",
      "    major_brand     : isom\n",
      "    minor_version   : 512\n",
      "    compatible_brands: isomiso2mp41\n",
      "    encoder         : Lavf61.1.100\n",
      "  Duration: 00:00:03.33, start: 0.000000, bitrate: 654 kb/s\n",
      "  Stream #0:0[0x1](und): Video: mpeg4 (Simple Profile) (mp4v / 0x7634706D), yuv420p, 320x240 [SAR 1:1 DAR 4:3], 651 kb/s, 30 fps, 30 tbr, 15360 tbn (default)\n",
      "      Metadata:\n",
      "        handler_name    : VideoHandler\n",
      "        vendor_id       : [0][0][0][0]\n",
      "Stream mapping:\n",
      "  Stream #0:0 -> #0:0 (mpeg4 (native) -> h264 (libx264))\n",
      "Press [q] to stop, [?] for help\n",
      "[libx264 @ 0x7fd51cf13f40] using SAR=1/1\n",
      "[libx264 @ 0x7fd51cf13f40] using cpu capabilities: MMX2 SSE2Fast SSSE3 SSE4.2 AVX FMA3 BMI2 AVX2\n",
      "[libx264 @ 0x7fd51cf13f40] profile High, level 1.3, 4:2:0, 8-bit\n",
      "[libx264 @ 0x7fd51cf13f40] 264 - core 164 r3108 31e19f9 - H.264/MPEG-4 AVC codec - Copyleft 2003-2023 - http://www.videolan.org/x264.html - options: cabac=1 ref=3 deblock=1:0:0 analyse=0x3:0x113 me=hex subme=7 psy=1 psy_rd=1.00:0.00 mixed_ref=1 me_range=16 chroma_me=1 trellis=1 8x8dct=1 cqm=0 deadzone=21,11 fast_pskip=1 chroma_qp_offset=-2 threads=7 lookahead_threads=1 sliced_threads=0 nr=0 decimate=1 interlaced=0 bluray_compat=0 constrained_intra=0 bframes=3 b_pyramid=2 b_adapt=1 b_bias=0 direct=1 weightb=1 open_gop=0 weightp=2 keyint=250 keyint_min=25 scenecut=40 intra_refresh=0 rc_lookahead=40 rc=crf mbtree=1 crf=23.0 qcomp=0.60 qpmin=0 qpmax=69 qpstep=4 ip_ratio=1.40 aq=1:1.00\n",
      "Output #0, mp4, to 'data/clips/right_clip_001_h264.mp4':\n",
      "  Metadata:\n",
      "    major_brand     : isom\n",
      "    minor_version   : 512\n",
      "    compatible_brands: isomiso2mp41\n",
      "    encoder         : Lavf61.7.100\n",
      "  Stream #0:0(und): Video: h264 (avc1 / 0x31637661), yuv420p(tv, progressive), 320x240 [SAR 1:1 DAR 4:3], q=2-31, 30 fps, 15360 tbn (default)\n",
      "      Metadata:\n",
      "        handler_name    : VideoHandler\n",
      "        vendor_id       : [0][0][0][0]\n",
      "        encoder         : Lavc61.19.101 libx264\n",
      "      Side data:\n",
      "        cpb: bitrate max/min/avg: 0/0/0 buffer size: 0 vbv_delay: N/A\n",
      "[out#0/mp4 @ 0x7fd51cf13180] video:59KiB audio:0KiB subtitle:0KiB other streams:0KiB global headers:0KiB muxing overhead: 3.401202%\n",
      "frame=  100 fps=0.0 q=-1.0 Lsize=      61KiB time=00:00:03.26 bitrate= 152.1kbits/s speed=  43x    \n",
      "[libx264 @ 0x7fd51cf13f40] frame I:1     Avg QP:19.45  size:  6992\n",
      "[libx264 @ 0x7fd51cf13f40] frame P:38    Avg QP:24.34  size:   817\n",
      "[libx264 @ 0x7fd51cf13f40] frame B:61    Avg QP:30.97  size:   350\n",
      "[libx264 @ 0x7fd51cf13f40] consecutive B-frames: 13.0% 16.0%  3.0% 68.0%\n",
      "[libx264 @ 0x7fd51cf13f40] mb I  I16..4:  8.3% 78.7% 13.0%\n",
      "[libx264 @ 0x7fd51cf13f40] mb P  I16..4:  0.4%  2.1%  1.2%  P16..4:  9.4%  4.8%  3.7%  0.0%  0.0%    skip:78.5%\n",
      "[libx264 @ 0x7fd51cf13f40] mb B  I16..4:  0.1%  0.7%  0.2%  B16..8: 11.8%  3.8%  1.6%  direct: 0.8%  skip:81.0%  L0:49.8% L1:46.7% BI: 3.5%\n",
      "[libx264 @ 0x7fd51cf13f40] 8x8 transform intra:68.6% inter:36.3%\n",
      "[libx264 @ 0x7fd51cf13f40] coded y,uvDC,uvAC intra: 41.4% 50.3% 35.4% inter: 3.7% 4.4% 2.2%\n",
      "[libx264 @ 0x7fd51cf13f40] i16 v,h,dc,p: 30% 32% 24% 14%\n",
      "[libx264 @ 0x7fd51cf13f40] i8 v,h,dc,ddl,ddr,vr,hd,vl,hu: 15% 19% 50%  3%  3%  2%  4%  1%  4%\n",
      "[libx264 @ 0x7fd51cf13f40] i4 v,h,dc,ddl,ddr,vr,hd,vl,hu: 15% 20% 27%  4%  8%  6%  9%  3%  8%\n",
      "[libx264 @ 0x7fd51cf13f40] i8c dc,h,v,p: 54% 29% 13%  4%\n",
      "[libx264 @ 0x7fd51cf13f40] Weighted P-Frames: Y:0.0% UV:0.0%\n",
      "[libx264 @ 0x7fd51cf13f40] ref P L0: 68.3%  8.2% 15.2%  8.3%\n",
      "[libx264 @ 0x7fd51cf13f40] ref B L0: 83.3% 12.6%  4.1%\n",
      "[libx264 @ 0x7fd51cf13f40] ref B L1: 94.5%  5.5%\n",
      "[libx264 @ 0x7fd51cf13f40] kb/s:142.51\n"
     ]
    },
    {
     "name": "stdout",
     "output_type": "stream",
     "text": [
      "🎥 Saved: data/clips/right_clip_001.mp4\n",
      "📦 Converting preferences to dataset...\n",
      "Saved 4 pairs to data/reward_training_data.pt\n",
      "🎯 Training reward model...\n",
      "No preferences to train on!\n",
      "🤖 Training PPO using updated reward function...\n",
      "\n",
      "🔁 Iteration 3/3\n"
     ]
    },
    {
     "name": "stderr",
     "output_type": "stream",
     "text": [
      "ffmpeg version 7.1.1 Copyright (c) 2000-2025 the FFmpeg developers\n",
      "  built with Apple clang version 16.0.0 (clang-1600.0.26.6)\n",
      "  configuration: --prefix=/usr/local/Cellar/ffmpeg/7.1.1_2 --enable-shared --enable-pthreads --enable-version3 --cc=clang --host-cflags= --host-ldflags='-Wl,-ld_classic' --enable-ffplay --enable-gnutls --enable-gpl --enable-libaom --enable-libaribb24 --enable-libbluray --enable-libdav1d --enable-libharfbuzz --enable-libjxl --enable-libmp3lame --enable-libopus --enable-librav1e --enable-librist --enable-librubberband --enable-libsnappy --enable-libsrt --enable-libssh --enable-libsvtav1 --enable-libtesseract --enable-libtheora --enable-libvidstab --enable-libvmaf --enable-libvorbis --enable-libvpx --enable-libwebp --enable-libx264 --enable-libx265 --enable-libxml2 --enable-libxvid --enable-lzma --enable-libfontconfig --enable-libfreetype --enable-frei0r --enable-libass --enable-libopencore-amrnb --enable-libopencore-amrwb --enable-libopenjpeg --enable-libspeex --enable-libsoxr --enable-libzmq --enable-libzimg --disable-libjack --disable-indev=jack --enable-videotoolbox --enable-audiotoolbox\n",
      "  libavutil      59. 39.100 / 59. 39.100\n",
      "  libavcodec     61. 19.101 / 61. 19.101\n",
      "  libavformat    61.  7.100 / 61.  7.100\n",
      "  libavdevice    61.  3.100 / 61.  3.100\n",
      "  libavfilter    10.  4.100 / 10.  4.100\n",
      "  libswscale      8.  3.100 /  8.  3.100\n",
      "  libswresample   5.  3.100 /  5.  3.100\n",
      "  libpostproc    58.  3.100 / 58.  3.100\n",
      "Input #0, mov,mp4,m4a,3gp,3g2,mj2, from 'data/clips/left_clip_002.mp4':\n",
      "  Metadata:\n",
      "    major_brand     : isom\n",
      "    minor_version   : 512\n",
      "    compatible_brands: isomiso2mp41\n",
      "    encoder         : Lavf61.1.100\n",
      "  Duration: 00:00:03.33, start: 0.000000, bitrate: 803 kb/s\n",
      "  Stream #0:0[0x1](und): Video: mpeg4 (Simple Profile) (mp4v / 0x7634706D), yuv420p, 320x240 [SAR 1:1 DAR 4:3], 800 kb/s, 30 fps, 30 tbr, 15360 tbn (default)\n",
      "      Metadata:\n",
      "        handler_name    : VideoHandler\n",
      "        vendor_id       : [0][0][0][0]\n",
      "Stream mapping:\n",
      "  Stream #0:0 -> #0:0 (mpeg4 (native) -> h264 (libx264))\n",
      "Press [q] to stop, [?] for help\n",
      "[libx264 @ 0x7fc1c1a08780] using SAR=1/1\n",
      "[libx264 @ 0x7fc1c1a08780] using cpu capabilities: MMX2 SSE2Fast SSSE3 SSE4.2 AVX FMA3 BMI2 AVX2\n",
      "[libx264 @ 0x7fc1c1a08780] profile High, level 1.3, 4:2:0, 8-bit\n",
      "[libx264 @ 0x7fc1c1a08780] 264 - core 164 r3108 31e19f9 - H.264/MPEG-4 AVC codec - Copyleft 2003-2023 - http://www.videolan.org/x264.html - options: cabac=1 ref=3 deblock=1:0:0 analyse=0x3:0x113 me=hex subme=7 psy=1 psy_rd=1.00:0.00 mixed_ref=1 me_range=16 chroma_me=1 trellis=1 8x8dct=1 cqm=0 deadzone=21,11 fast_pskip=1 chroma_qp_offset=-2 threads=7 lookahead_threads=1 sliced_threads=0 nr=0 decimate=1 interlaced=0 bluray_compat=0 constrained_intra=0 bframes=3 b_pyramid=2 b_adapt=1 b_bias=0 direct=1 weightb=1 open_gop=0 weightp=2 keyint=250 keyint_min=25 scenecut=40 intra_refresh=0 rc_lookahead=40 rc=crf mbtree=1 crf=23.0 qcomp=0.60 qpmin=0 qpmax=69 qpstep=4 ip_ratio=1.40 aq=1:1.00\n",
      "Output #0, mp4, to 'data/clips/left_clip_002_h264.mp4':\n",
      "  Metadata:\n",
      "    major_brand     : isom\n",
      "    minor_version   : 512\n",
      "    compatible_brands: isomiso2mp41\n",
      "    encoder         : Lavf61.7.100\n",
      "  Stream #0:0(und): Video: h264 (avc1 / 0x31637661), yuv420p(tv, progressive), 320x240 [SAR 1:1 DAR 4:3], q=2-31, 30 fps, 15360 tbn (default)\n",
      "      Metadata:\n",
      "        handler_name    : VideoHandler\n",
      "        vendor_id       : [0][0][0][0]\n",
      "        encoder         : Lavc61.19.101 libx264\n",
      "      Side data:\n",
      "        cpb: bitrate max/min/avg: 0/0/0 buffer size: 0 vbv_delay: N/A\n",
      "[out#0/mp4 @ 0x7fc1c1a080c0] video:70KiB audio:0KiB subtitle:0KiB other streams:0KiB global headers:0KiB muxing overhead: 2.828122%\n",
      "frame=  100 fps=0.0 q=-1.0 Lsize=      72KiB time=00:00:03.26 bitrate= 180.5kbits/s speed=48.2x    \n",
      "[libx264 @ 0x7fc1c1a08780] frame I:1     Avg QP:19.29  size:  6938\n",
      "[libx264 @ 0x7fc1c1a08780] frame P:34    Avg QP:24.81  size:   970\n",
      "[libx264 @ 0x7fc1c1a08780] frame B:65    Avg QP:31.19  size:   478\n",
      "[libx264 @ 0x7fc1c1a08780] consecutive B-frames: 11.0%  6.0%  3.0% 80.0%\n",
      "[libx264 @ 0x7fc1c1a08780] mb I  I16..4: 14.0% 73.3% 12.7%\n",
      "[libx264 @ 0x7fc1c1a08780] mb P  I16..4:  0.5%  2.8%  2.9%  P16..4:  8.7%  4.1%  3.4%  0.0%  0.0%    skip:77.5%\n",
      "[libx264 @ 0x7fc1c1a08780] mb B  I16..4:  0.1%  0.8%  0.4%  B16..8: 10.8%  4.4%  2.0%  direct: 0.8%  skip:80.8%  L0:48.2% L1:46.6% BI: 5.3%\n",
      "[libx264 @ 0x7fc1c1a08780] 8x8 transform intra:56.3% inter:34.9%\n",
      "[libx264 @ 0x7fc1c1a08780] coded y,uvDC,uvAC intra: 50.1% 61.7% 49.5% inter: 3.8% 5.0% 2.7%\n",
      "[libx264 @ 0x7fc1c1a08780] i16 v,h,dc,p: 44% 14% 26% 15%\n",
      "[libx264 @ 0x7fc1c1a08780] i8 v,h,dc,ddl,ddr,vr,hd,vl,hu: 17% 20% 42%  3%  4%  3%  4%  2%  6%\n",
      "[libx264 @ 0x7fc1c1a08780] i4 v,h,dc,ddl,ddr,vr,hd,vl,hu: 18% 23% 21%  7%  6%  6%  9%  4%  6%\n",
      "[libx264 @ 0x7fc1c1a08780] i8c dc,h,v,p: 45% 30% 18%  7%\n",
      "[libx264 @ 0x7fc1c1a08780] Weighted P-Frames: Y:0.0% UV:0.0%\n",
      "[libx264 @ 0x7fc1c1a08780] ref P L0: 64.0%  8.4% 15.6% 12.1%\n",
      "[libx264 @ 0x7fc1c1a08780] ref B L0: 84.5% 10.5%  5.0%\n",
      "[libx264 @ 0x7fc1c1a08780] ref B L1: 94.1%  5.9%\n",
      "[libx264 @ 0x7fc1c1a08780] kb/s:170.36\n"
     ]
    },
    {
     "name": "stdout",
     "output_type": "stream",
     "text": [
      "🎥 Saved: data/clips/left_clip_002.mp4\n"
     ]
    },
    {
     "name": "stderr",
     "output_type": "stream",
     "text": [
      "ffmpeg version 7.1.1 Copyright (c) 2000-2025 the FFmpeg developers\n",
      "  built with Apple clang version 16.0.0 (clang-1600.0.26.6)\n",
      "  configuration: --prefix=/usr/local/Cellar/ffmpeg/7.1.1_2 --enable-shared --enable-pthreads --enable-version3 --cc=clang --host-cflags= --host-ldflags='-Wl,-ld_classic' --enable-ffplay --enable-gnutls --enable-gpl --enable-libaom --enable-libaribb24 --enable-libbluray --enable-libdav1d --enable-libharfbuzz --enable-libjxl --enable-libmp3lame --enable-libopus --enable-librav1e --enable-librist --enable-librubberband --enable-libsnappy --enable-libsrt --enable-libssh --enable-libsvtav1 --enable-libtesseract --enable-libtheora --enable-libvidstab --enable-libvmaf --enable-libvorbis --enable-libvpx --enable-libwebp --enable-libx264 --enable-libx265 --enable-libxml2 --enable-libxvid --enable-lzma --enable-libfontconfig --enable-libfreetype --enable-frei0r --enable-libass --enable-libopencore-amrnb --enable-libopencore-amrwb --enable-libopenjpeg --enable-libspeex --enable-libsoxr --enable-libzmq --enable-libzimg --disable-libjack --disable-indev=jack --enable-videotoolbox --enable-audiotoolbox\n",
      "  libavutil      59. 39.100 / 59. 39.100\n",
      "  libavcodec     61. 19.101 / 61. 19.101\n",
      "  libavformat    61.  7.100 / 61.  7.100\n",
      "  libavdevice    61.  3.100 / 61.  3.100\n",
      "  libavfilter    10.  4.100 / 10.  4.100\n",
      "  libswscale      8.  3.100 /  8.  3.100\n",
      "  libswresample   5.  3.100 /  5.  3.100\n",
      "  libpostproc    58.  3.100 / 58.  3.100\n",
      "Input #0, mov,mp4,m4a,3gp,3g2,mj2, from 'data/clips/right_clip_002.mp4':\n",
      "  Metadata:\n",
      "    major_brand     : isom\n",
      "    minor_version   : 512\n",
      "    compatible_brands: isomiso2mp41\n",
      "    encoder         : Lavf61.1.100\n",
      "  Duration: 00:00:03.33, start: 0.000000, bitrate: 752 kb/s\n",
      "  Stream #0:0[0x1](und): Video: mpeg4 (Simple Profile) (mp4v / 0x7634706D), yuv420p, 320x240 [SAR 1:1 DAR 4:3], 749 kb/s, 30 fps, 30 tbr, 15360 tbn (default)\n",
      "      Metadata:\n",
      "        handler_name    : VideoHandler\n",
      "        vendor_id       : [0][0][0][0]\n",
      "Stream mapping:\n",
      "  Stream #0:0 -> #0:0 (mpeg4 (native) -> h264 (libx264))\n",
      "Press [q] to stop, [?] for help\n",
      "[libx264 @ 0x7f8c268087c0] using SAR=1/1\n",
      "[libx264 @ 0x7f8c268087c0] using cpu capabilities: MMX2 SSE2Fast SSSE3 SSE4.2 AVX FMA3 BMI2 AVX2\n",
      "[libx264 @ 0x7f8c268087c0] profile High, level 1.3, 4:2:0, 8-bit\n",
      "[libx264 @ 0x7f8c268087c0] 264 - core 164 r3108 31e19f9 - H.264/MPEG-4 AVC codec - Copyleft 2003-2023 - http://www.videolan.org/x264.html - options: cabac=1 ref=3 deblock=1:0:0 analyse=0x3:0x113 me=hex subme=7 psy=1 psy_rd=1.00:0.00 mixed_ref=1 me_range=16 chroma_me=1 trellis=1 8x8dct=1 cqm=0 deadzone=21,11 fast_pskip=1 chroma_qp_offset=-2 threads=7 lookahead_threads=1 sliced_threads=0 nr=0 decimate=1 interlaced=0 bluray_compat=0 constrained_intra=0 bframes=3 b_pyramid=2 b_adapt=1 b_bias=0 direct=1 weightb=1 open_gop=0 weightp=2 keyint=250 keyint_min=25 scenecut=40 intra_refresh=0 rc_lookahead=40 rc=crf mbtree=1 crf=23.0 qcomp=0.60 qpmin=0 qpmax=69 qpstep=4 ip_ratio=1.40 aq=1:1.00\n",
      "Output #0, mp4, to 'data/clips/right_clip_002_h264.mp4':\n",
      "  Metadata:\n",
      "    major_brand     : isom\n",
      "    minor_version   : 512\n",
      "    compatible_brands: isomiso2mp41\n",
      "    encoder         : Lavf61.7.100\n",
      "  Stream #0:0(und): Video: h264 (avc1 / 0x31637661), yuv420p(tv, progressive), 320x240 [SAR 1:1 DAR 4:3], q=2-31, 30 fps, 15360 tbn (default)\n",
      "      Metadata:\n",
      "        handler_name    : VideoHandler\n",
      "        vendor_id       : [0][0][0][0]\n",
      "        encoder         : Lavc61.19.101 libx264\n",
      "      Side data:\n",
      "        cpb: bitrate max/min/avg: 0/0/0 buffer size: 0 vbv_delay: N/A\n",
      "[out#0/mp4 @ 0x7f8c26808540] video:65KiB audio:0KiB subtitle:0KiB other streams:0KiB global headers:0KiB muxing overhead: 3.063144%\n",
      "frame=  100 fps=0.0 q=-1.0 Lsize=      67KiB time=00:00:03.26 bitrate= 167.7kbits/s speed=50.4x    \n",
      "[libx264 @ 0x7f8c268087c0] frame I:1     Avg QP:19.52  size:  6767\n",
      "[libx264 @ 0x7f8c268087c0] frame P:34    Avg QP:24.43  size:   944\n",
      "[libx264 @ 0x7f8c268087c0] frame B:65    Avg QP:31.15  size:   414\n",
      "[libx264 @ 0x7f8c268087c0] consecutive B-frames:  9.0% 10.0%  9.0% 72.0%\n",
      "[libx264 @ 0x7f8c268087c0] mb I  I16..4: 15.3% 71.7% 13.0%\n",
      "[libx264 @ 0x7f8c268087c0] mb P  I16..4:  0.5%  1.9%  1.6%  P16..4:  9.7%  5.1%  3.9%  0.0%  0.0%    skip:77.3%\n",
      "[libx264 @ 0x7f8c268087c0] mb B  I16..4:  0.1%  0.9%  0.3%  B16..8: 11.4%  3.8%  2.0%  direct: 0.8%  skip:80.8%  L0:51.6% L1:44.1% BI: 4.2%\n",
      "[libx264 @ 0x7f8c268087c0] 8x8 transform intra:62.1% inter:34.0%\n",
      "[libx264 @ 0x7f8c268087c0] coded y,uvDC,uvAC intra: 45.8% 55.2% 42.8% inter: 3.8% 5.0% 2.6%\n",
      "[libx264 @ 0x7f8c268087c0] i16 v,h,dc,p: 44% 14% 25% 17%\n",
      "[libx264 @ 0x7f8c268087c0] i8 v,h,dc,ddl,ddr,vr,hd,vl,hu: 13% 20% 51%  2%  3%  2%  4%  1%  4%\n",
      "[libx264 @ 0x7f8c268087c0] i4 v,h,dc,ddl,ddr,vr,hd,vl,hu: 16% 20% 24%  8%  6%  6%  7%  4%  8%\n",
      "[libx264 @ 0x7f8c268087c0] i8c dc,h,v,p: 46% 26% 22%  6%\n",
      "[libx264 @ 0x7f8c268087c0] Weighted P-Frames: Y:0.0% UV:0.0%\n",
      "[libx264 @ 0x7f8c268087c0] ref P L0: 64.4%  7.7% 17.3% 10.6%\n",
      "[libx264 @ 0x7f8c268087c0] ref B L0: 79.9% 15.0%  5.1%\n",
      "[libx264 @ 0x7f8c268087c0] ref B L1: 94.0%  6.0%\n",
      "[libx264 @ 0x7f8c268087c0] kb/s:157.79\n"
     ]
    },
    {
     "name": "stdout",
     "output_type": "stream",
     "text": [
      "🎥 Saved: data/clips/right_clip_002.mp4\n",
      "📦 Converting preferences to dataset...\n",
      "Saved 4 pairs to data/reward_training_data.pt\n",
      "🎯 Training reward model...\n",
      "No preferences to train on!\n",
      "🤖 Training PPO using updated reward function...\n",
      "\n",
      "✅ Done. Preference-based RL pipeline completed.\n"
     ]
    }
   ],
   "source": [
    "# Step 1: Imports and environment setup\n",
    "import os\n",
    "import subprocess\n",
    "from training.trainer import RLHFTrainer\n",
    "from training.human_feedback_collector import convert_preferences_to_dataset\n",
    "from inference.render_inference import render_trajectory_video\n",
    "\n",
    "\n",
    "trainer = RLHFTrainer(save_dir=\"saved_models\")\n",
    "\n",
    "os.makedirs(\"data/clips\", exist_ok=True)\n",
    "os.makedirs(\"data/trajectories\", exist_ok=True)\n",
    "\n",
    "NUM_ITERATIONS = 3\n",
    "PREFERENCES_PER_ITER = 1  # number of preferences to collect before training\n",
    "\n",
    "def convert_to_h264(video_path):\n",
    "    h264_path = video_path.replace(\".mp4\", \"_h264.mp4\")\n",
    "    os.system(f\"ffmpeg -y -i {video_path} -vcodec libx264 -crf 23 {h264_path}\")\n",
    "    os.remove(video_path)\n",
    "    os.rename(h264_path, video_path)\n",
    "\n",
    "\n",
    "def generate_and_save_trajectories(iteration):\n",
    "    traj1 = trainer.ppo_trainer.collect_trajectory()\n",
    "    traj2 = trainer.ppo_trainer.collect_trajectory()\n",
    "    \n",
    "    prefix1 = f\"left_clip_{iteration:03d}\"\n",
    "    prefix2 = f\"right_clip_{iteration:03d}\"\n",
    "    \n",
    "    render_trajectory_video(traj1, trainer.env, prefix1)\n",
    "    render_trajectory_video(traj2, trainer.env, prefix2)\n",
    "    \n",
    "    return prefix1, prefix2\n",
    "\n",
    "print(\"🚀 Launching Streamlit UI for preference collection...\")\n",
    "subprocess.Popen([\"streamlit\", \"run\", \"scripts/visualize_trajectories.py\"])\n",
    "\n",
    "# Step 2: Main Preference Training Loop\n",
    "for iteration in range(NUM_ITERATIONS):\n",
    "    print(f\"\\n🔁 Iteration {iteration + 1}/{NUM_ITERATIONS}\")\n",
    "\n",
    "    # 1. Generate two trajectories with the current PPO policy\n",
    "    prefix_a, prefix_b = generate_and_save_trajectories(iteration)\n",
    "\n",
    "    # 2. Ask the user to label preference\n",
    "    # print(\"🚀 Launching Streamlit UI for preference collection...\")\n",
    "    # # subprocess.run([\"streamlit\", \"run\", \"scripts/visualize_trajectories.py\"])\n",
    "    # subprocess.Popen([\"streamlit\", \"run\", \"scripts/visualize_trajectories.py\"])\n",
    "    input(\"📝 Label your preferences in the Streamlit app. Press Enter here when done...\")\n",
    "\n",
    "    # 3. Convert preference logs to training dataset\n",
    "    print(\"📦 Converting preferences to dataset...\")\n",
    "    convert_preferences_to_dataset()\n",
    "\n",
    "    # 4. Train reward model using new preferences\n",
    "    print(\"🎯 Training reward model...\")\n",
    "    trainer.train_reward_model()\n",
    "\n",
    "    # 5. Train PPO with updated reward predictor\n",
    "    print(\"🤖 Training PPO using updated reward function...\")\n",
    "    trainer.train_step()\n",
    "\n",
    "print(\"\\n✅ Done. Preference-based RL pipeline completed.\")"
   ]
  },
  {
   "cell_type": "code",
   "execution_count": null,
   "id": "1a800b98",
   "metadata": {},
   "outputs": [],
   "source": []
  }
 ],
 "metadata": {
  "kernelspec": {
   "display_name": "robotlearning",
   "language": "python",
   "name": "python3"
  },
  "language_info": {
   "codemirror_mode": {
    "name": "ipython",
    "version": 3
   },
   "file_extension": ".py",
   "mimetype": "text/x-python",
   "name": "python",
   "nbconvert_exporter": "python",
   "pygments_lexer": "ipython3",
   "version": "3.9.21"
  }
 },
 "nbformat": 4,
 "nbformat_minor": 5
}
